<svg xmlns="http://www.w3.org/2000/svg" viewBox="0 0 163.49 104.82"><g id="Layer_2" data-name="Layer 2"><g id="Graphic_Elements" data-name="Graphic Elements"><path fill="#ffffff" d="M76,99.23A52.41,52.41,0,1,1,52.41,0,52.11,52.11,0,0,1,76.32,5.78,58.86,58.86,0,0,0,76,99.23Zm87.54-46.58A51.42,51.42,0,0,1,82.88,95c-.08.06-.16.13-.24.18A51.7,51.7,0,0,1,83,9.85c.08.06.16.13.24.18a51.44,51.44,0,0,1,80.27,42.62Zm-7.21,0A44.22,44.22,0,0,0,89,14.91a52.29,52.29,0,0,1-.3,75.29,44.22,44.22,0,0,0,67.61-37.55Z"/></g></g></svg>